<svg width="30" height="24" viewBox="0 0 30 24" fill="none" xmlns="http://www.w3.org/2000/svg">
<path d="M6.17942 9.90992C6.54544 7.60923 9.4213 5.15168 11.6697 5.09939C11.8266 5.09939 11.9834 5.0471 12.088 4.94252C12.1926 4.89023 12.2972 4.83794 12.3495 4.68108C13.1338 3.217 12.7155 2.06666 11.4083 1.12547C9.8919 0.0274091 7.48663 1.12547 6.284 2.11895C3.25127 4.62879 0.16625 8.96865 0.323116 13.0995C-0.199769 15.8709 -0.095192 18.8512 0.689135 21.3088C1.21202 22.8775 2.72838 23.6618 4.29704 23.7664C5.86569 23.871 9.10757 24.3415 10.5194 23.4004C11.9311 22.4591 12.0357 20.6291 12.1926 19.0605C12.3495 17.335 12.8201 14.093 11.356 12.7335C9.8919 11.4263 5.70882 12.8381 6.17942 9.90992Z" fill="#EF6C33"/>
<path d="M23.4353 9.90992C23.8013 7.60923 26.6771 5.15168 28.9256 5.09939C29.0824 5.09939 29.2393 5.0471 29.3439 4.94252C29.4485 4.89023 29.553 4.83794 29.6054 4.68108C30.3897 3.217 29.9714 2.06666 28.6642 1.12547C27.1479 0.0274091 24.7426 1.12547 23.5399 2.11895C20.5071 4.62879 17.4221 8.96873 17.579 13.0995C17.0561 15.8709 17.1607 18.8512 17.9449 21.3088C18.4678 22.8775 19.9842 23.6618 21.5529 23.7664C23.1216 23.871 26.3634 24.3415 27.7752 23.4004C29.1869 22.4591 29.2916 20.6291 29.4485 19.0605C29.6053 17.335 30.0759 14.093 28.6118 12.7335C27.1478 11.4263 22.9124 12.8381 23.4353 9.90992Z" fill="#EF6C33"/>
</svg>
